<?xml version="1.0" encoding="utf-8"?>
<!-- Generator: Adobe Illustrator 19.2.1, SVG Export Plug-In . SVG Version: 6.00 Build 0)  -->
<svg version="1.1" id="layer" xmlns="http://www.w3.org/2000/svg" xmlns:xlink="http://www.w3.org/1999/xlink" x="0px" y="0px"
	 viewBox="0 0 652 652" style="enable-background:new 0 0 652 652;" xml:space="preserve">
<style type="text/css">
	.st0{fill-rule:evenodd;clip-rule:evenodd;fill:#00FFD0;}
	.st1{fill-rule:evenodd;clip-rule:evenodd;fill:#333333;}
</style>
<path class="st0" d="M261.1,379c0.2,1.8-1.2,3.3-1.2,3.3l-1.6-0.5c0,0-11.6-4.1-29.4-9.4c0,0-15.8-4.7-22.2-6.9c0,0-1.4-0.5-4.1-0.3
	c-2.7,0.3-12,1-18.1,1.6l-9.4,1.1c-16.9,2-24.7,2.3-24.7,2.3c-26.9,2.6-33.3,3.1-33.3,3.1c-14.2,1-23.2,2.7-44.5,4.1l-40,4
	c0,0-2.9,0.3-2.9,0.3l-1.1,0.1c-0.9-0.6-1-1.3-1-1.3l0-1.5c1.7-0.6-0.2-2.4-0.2-2.4c-0.9-0.4-0.6-1-0.6-1c0-0.1,0.1-0.2,0.1-0.3
	c0.1-0.1,0.3-0.4,0.2-0.4c-0.2-0.5,0.7-2.2,0.7-2.2c-0.4-0.6-0.3-0.5-0.7-1c-0.3-0.4-0.4-1.4-0.5-2.2c0-0.5,0.9-1.6,0.6-1.9
	c-0.4-0.5-0.8-0.9-1.2-1.4c-0.2-0.2-0.3-0.5-0.3-0.8c0-0.2,0-0.4,0.1-0.6c0.3-0.4,0.3-0.4-0.1-1.1c-0.1-0.3-0.3-0.4-0.4-0.7
	c-0.3-0.5,0.7-1.7,0.6-2.4c-0.1-0.4-0.1-0.7-0.2-1.1c-0.1-0.3-0.1-0.6-0.2-0.9l-0.1-0.2c-0.1-0.1-0.1-0.3,0-0.5c0-0.3-0.1-0.5,0-0.8
	c-0.1-0.4-0.2-0.7-0.3-1.1c-0.1-0.3-0.1-0.5,0-0.7c0-0.1,0.1-0.1,0.1-0.1c0.2-0.1,0.1-0.6,0.2-0.9l-0.1-0.2
	c-0.1-0.2-0.2-0.3-0.1-0.4c0.1-0.3,0-0.7,0-1.1c0-0.4-0.1-0.8-0.2-1.2c-0.1-0.2-0.1-0.4-0.2-0.6c-0.1-0.3-0.1-0.5,0-0.6
	c0.1-0.2,0.2-0.4,0.4-0.6c0.1-0.1,0.1-0.5,0-0.7c-0.1-0.2-0.2-0.4-0.3-0.6c-0.1-0.2-0.3-0.4-0.4-0.6c-0.3-0.4-0.6-0.9-0.4-1.5
	c0.1-0.4,0-0.6-0.2-0.9c-0.2-0.2-0.3-0.4-0.4-0.6c-0.4-0.9-0.4-1.1,0.1-1.2c0.4-0.1,0.5-0.2,0.4-1.1c-0.1-0.9-0.1-1.4,0.3-1.5
	c0.2-0.1,0.5-0.3,0.4-1c-0.1-0.7,0.2-2-0.2-2.1c-0.5-0.2-0.6-1.1-0.9-1.6c0,0,0-0.2,0.1-0.2c0.1,0,0.2,0.2,0.2,0.2
	c0.1,0,0.2,0,0.3,0c-0.1-0.2-0.1-0.5-0.2-0.6c-0.3-0.4-0.4-0.6-0.4-1.3c0-0.7,0-1.7-0.7-2.2c-0.1-0.1-0.2-0.6-0.2-0.8
	c0-0.2,0.1-0.3,0.2-0.4c0.1-0.1,0.3,0,0.4-0.1c0.1,0,0.2-0.2,0.3-0.3c-0.1-0.2-0.2-0.5-0.3-0.7c-0.2-0.2-0.4-0.5-0.6-0.7
	c-0.3-0.3-0.5-0.9-0.3-1.1c0.4-0.4,0.1-0.7-0.2-1.2c-0.1-0.2-0.3-0.5-0.4-0.8c0-0.2-0.1-0.3,0-0.5c0.1-0.1,0.4-0.7,1.1-0.7
	c0.3,0,0.3-0.4,0.3-0.5c-0.1-0.2-0.8,0-0.9-0.1c-0.3-0.2,0-0.3-0.2-0.5c-0.3-0.2-0.7-1.3-0.6-1.7c0-0.2,0.2-0.2,0.3-0.3
	c0.2-0.1,0.5,0.1,0.1-0.7c-0.2-0.5-0.1-0.3,0-0.9c0.1-0.3,0.2-0.2,0.1-0.5l0.2-0.2c0,0,3.4-0.5,3.9-0.5c1-0.1,0.1-1.4,0.1-1.4
	c-0.3-1.8-0.1-2.5-0.1-2.8c-0.1-1.4-0.6-1.6-1.2-2c-0.1-0.1-0.3-0.6-0.4-1c0-0.1,0.2-0.4,0.3-0.4c0.2,0,0.3-0.1,0.5,0
	c0.1,0,0.1-0.3,0.2-0.2c0-0.2,0.1-0.1,0-0.2c-0.1-0.3-0.3-0.1-0.4-0.4c-0.1-0.3-0.2-0.5-0.3-0.8c0-0.1,0.2-0.3,0.3-0.3
	c0.2,0,0.3-0.6,0.1-1.1c-0.2-0.4-0.2-0.4-0.3-0.9c-0.2-0.8-0.1-1.3,0.2-1.5c0.4-0.4,0.3-0.7-0.1-1.4c0-0.1-0.1-0.1-0.1-0.2
	c-0.2-0.2-0.4-0.4-0.4-0.8c0-0.5,0.4-0.9,0.6-0.9c0.1,0,0.2-0.3,0.2-0.4c0.1-0.6,0.1-0.4-0.1-0.7c-0.2-0.4-0.6-0.3-0.9-0.4
	c-0.7-0.1-0.6-0.3-0.9-0.8c-0.3-0.4-0.4-0.6-0.2-0.9c0.1-0.1,0.5-0.2,0.6-0.1c0.3,0,0.2-0.2,0.2-0.7c0-0.1,0.1-0.2,0.1-0.4
	c0.3-0.8,0.2-0.8-0.1-2.1c-0.2-0.9-0.4-1.8,0-2.4c0.2-0.4,0.1-1.8,0.4-1.8c0.2-0.1,0.2-0.6,0.2-0.9c0-0.2,0.1-0.3,0.2-0.3
	c0.1,0,0.1-0.2,0.2-0.3c0.1-0.2-0.3-0.7-0.4-0.8c-0.1-0.3-0.3-0.7-0.5-1c-0.3-0.4-0.4-0.8-0.1-1c0.2-0.1,0.2-0.6,0-0.9
	c-0.4-0.5-0.5-1.2-0.6-1.8c0-0.1,0-0.2,0-0.2c0-0.4-0.5-0.8-0.3-1.1c0.1-0.2,0.4-0.1,0.5-0.2c0.3-0.2,0.9-0.6,0.6-0.9
	c-0.1-0.1,0-0.6-0.1-0.7c-0.2-0.3-0.3-0.6-0.5-0.8c-0.4-0.4-0.2-0.2-0.5-0.9l-0.1-0.4c-0.1-0.4,0.3-0.4,0.3-0.4l4.4-0.6
	c0,0,11.5-1.2,22.3-2.3c0,0,8.3-0.8,43.1-4.4c0,0,14.7-1.3,31.5-3.6c0,0,14.7-1.8,44.9-4.2c0,0,20.6-2.1,35.5-3.9c0,0,5.5-0.9,9.2,1
	c0,0,24.2,10.2,32.7,13.5l40.6,17.6c1,0.6,0.4,1,0.4,1c-0.1,0.1-0.2,0.1-0.3,0.2c-0.2,0.1-0.6,0.3-0.6,0.3c0.1,0.5,0.1,1,0.3,1.3
	c0.4,0.6,0.2,0.5,0.6,1.1c0.2,0.4-0.1,1.3-0.3,2c-0.2,0.5-1.9,1.1-1.7,1.4c0.4,0.5,0.7,1,1.1,1.5c0.1,0.2,0.1,0.5,0.1,0.7
	c0,0.2-0.3,0.3-0.4,0.4c-0.6,0.3-0.6,0.3-0.4,0.9c0.1,0.3,0.2,0.5,0.3,0.7c0.2,0.5-1.7,1.2-1.9,1.8c-0.1,0.3-0.1,0.6-0.1,0.9
	c0,0.2,0,0.5-0.1,0.8c0,0.1,0,0.1,0,0.2c0,0.2,0,0.3-0.1,0.4c-0.1,0.2-0.2,0.4-0.3,0.6c0,0.3,0,0.7,0,1c0,0.2-0.1,0.5-0.4,0.6
	c-0.1,0-0.1,0.1-0.2,0.1c-0.3,0-0.5,0.5-0.7,0.7l0.1,0.2c0.1,0.2,0.1,0.3,0,0.4c-0.3,0.2-0.3,0.7-0.5,0.9c-0.3,0.4-0.2,0.8-0.2,1.2
	c0,0.1,0,0.2,0,0.4c0,0.2-0.1,0.4-0.3,0.5c-0.2,0.1-0.5,0.2-0.7,0.3c-0.2,0.1-0.3,0.4-0.3,0.6c0,0.2,0.1,0.4,0.1,0.6
	c0.1,0.2,0.2,0.4,0.3,0.6c0.3,0.4,0.4,0.9,0,1.4c-0.3,0.3-0.3,0.5-0.1,0.8c0.1,0.2,0.2,0.4,0.3,0.6c0.2,0.8,0.1,1-0.6,1
	c-0.7-0.1-0.8,0-1,0.8c-0.2,0.8-0.5,1.2-1.1,1.2c-0.4,0-0.8,0.2-1,0.8c-0.2,0.6-0.1,1.3,0.4,1.6c0.6,0.3,0.3,1.1,0.5,1.6
	c0,0-0.1,0.2-0.2,0.1c-0.1,0-0.1-0.2-0.2-0.2c-0.1-0.1-0.3-0.1-0.4-0.1c0,0.2,0,0.4,0,0.6c0.2,0.4,0.2,0.7,0,1.2
	c-0.3,0.6-0.7,1.4,0,2.1c0.1,0.1,0,0.6-0.1,0.8c-0.1,0.2-0.3,0.2-0.5,0.3c-0.2,0-0.4-0.1-0.6-0.1c-0.2,0-0.4,0.1-0.5,0.1
	c0,0.2,0,0.5,0.1,0.6c0.1,0.3,0.3,0.5,0.5,0.7c0.4,0.4,0.3,0.9-0.1,1c-0.7,0.2-0.4,0.6-0.3,1c0.1,0.2,0.1,0.5,0.1,0.8
	c0,0.1-0.1,0.4-0.2,0.4c-0.6,0.1-1.1,0.7-1.7,0.2c-0.1-0.1-0.2,0-0.4,0c0,0.2,0,0.5,0.1,0.6c0.2,0.3,0.6,0.5,0.9,0.7
	c0.3,0.2,0.4,1.3,0.1,1.6c-0.1,0.1-0.4,0.1-0.6,0.1c-0.3,0-0.6-0.2-0.5,0.5c0.1,0.5-0.1,1-0.6,1c-0.5,0-0.5,0.5-0.5,0.9
	c0,0.7-0.3,1.2-0.8,1.5c-0.3,0.2-0.6,0.3-0.1,0.6c0.5,0.3,0.7,0.8,0.6,1.6c-0.1,0.7-0.2,1.5,0.4,2c0.1,0.1,0.1,0.6,0.1,0.9
	c0,0.1-0.4,0.3-0.6,0.2c-0.3-0.1-0.5-0.3-0.8-0.4c-0.1,0-0.1-0.1-0.2-0.2c0,0.1-0.1,0.3-0.1,0.4c0.1,0.3,0.2,0.5,0.3,0.8
	c0.1,0.2,0.1,0.5,0,0.8c0,0.1-0.3,0.2-0.5,0.2c-0.3,0-0.5-0.1-0.4,0.5c0,0.4-0.1,0.8-0.2,1.3c-0.1,0.7-0.4,1.1-1,1.2
	c-0.6,0.2-0.7,0.5-0.4,1.2c0,0.1,0.1,0.1,0.1,0.2c0.2,0.2,0.3,0.4,0.1,0.8c-0.3,0.4-0.4,0.1-0.6,0c-0.2-0.1-0.5,0-0.5,0.1
	c-0.1,0.4-0.2,0.8-0.2,1.1c0.1,0.3,0.4,0.6,0.6,0.9c0.3,0.4,0.8,0.8,1.1,1.3c0.2,0.4,0.1,0.7-0.4,0.7c-0.2,0-0.3,0-0.5-0.1
	c-0.3-0.1-0.7-0.1-0.9,0.4c-0.1,0.1-0.2,0.2-0.3,0.3c-0.7,0.6-0.7,0.6-0.9,1.8c-0.1,0.8-0.3,1.6-1,2c-0.5,0.3-0.9,1.4-1.3,1.4
	c-0.3,0-0.5,0.4-0.7,0.7c-0.1,0.1-0.2,0.2-0.3,0.2c-0.1,0-0.2-0.2-0.3-0.1c-0.2,0.2,0.1,0.9,0.1,1.1c0.1,0.3,0.1,0.7,0.2,1
	c0.1,0.4,0.3,0.8-0.3,0.8c-0.4,0-0.6,0.5-0.4,0.7c0.3,0.6,0.1,1.1,0,1.7c0,0.1,0,0.1,0,0.2c-0.1,0.4,0.3,0.8-0.1,1
	c-0.2,0.1-0.5,0-0.8,0c-0.5,0.1-1,0.3-1.5,0.5c-0.1,0-0.1,0.4-0.1,0.5c0.2,0.3,0.3,0.7,0.6,0.9c0.4,0.4,0.7,0.9,0.8,1.6
	c0.1,0.5,0,0.9-0.4,1.3C261,378.1,261.1,379,261.1,379"/>
<path class="st1" d="M126,307.3c-2.9-2.5-6.8-3.8-10.9-3.8c-7.4,0-13.3,3.3-15.6,8.8c-2.5-6.5-8.4-8.8-13.4-8.8
	c-5.5,0-10,2.4-12.4,6.4l-1.3-5.2h-7.5v49.6h9.2v-30.5c0-7.3,4.2-12,10.6-12c5.5,0,8.7,3.4,8.7,9.3v33.2h9.1v-30.5
	c0-7.3,4.2-12,10.6-12c5.6,0,8.7,3.4,8.7,9.3v33.2h9.2v-35.4C131,314.2,129.3,310.1,126,307.3 M197.1,307.3
	c-2.9-2.5-6.8-3.8-10.9-3.8c-7.4,0-13.3,3.3-15.6,8.8c-2.5-6.5-8.4-8.8-13.4-8.8c-5.5,0-10,2.4-12.4,6.4l-1.3-5.2h-7.5v49.6h9.2
	v-30.5c0-7.3,4.1-12,10.6-12c5.5,0,8.7,3.4,8.7,9.3v33.2h9.2v-30.5c0-7.3,4.2-12,10.6-12c5.5,0,8.7,3.4,8.7,9.3v33.2h9.1v-35.4
	C202.2,314.2,200.4,310.1,197.1,307.3 M234.1,348.1c-7.6,0-15.2-6.1-15.2-17.9c0-10.3,6.4-17.8,15.2-17.8c8.7,0,15.1,7.5,15.1,17.8
	C249.1,341.9,241.6,348.1,234.1,348.1 M234,303.5c-7.1,0-13.2,2.7-17.7,7.9c-4.2,4.9-6.5,11.5-6.5,18.8c0,7.3,2.3,14,6.5,18.9
	c4.4,5.1,10.5,7.8,17.7,7.8c14,0,24.2-11.2,24.2-26.7C258.1,314.7,248,303.5,234,303.5 M47.1,291.8v62.6h10.2v-66.1L47.1,291.8z
	 M538.4,345.4c1.4-1.1,2.8-2.1,4.2-3.2c13-9.7,26.4-19.8,26.4-34.5c0-11.5-8.5-19.5-20.8-19.5c-10.7,0-22.3,7-22.3,22.3
	c0,0.7,0.1,1.6,0.1,2.1l8.8-3.3c0-8.4,6.5-12.9,12.8-12.9c6.2,0,12.5,3.8,12.5,12.4c0,11.1-11.6,19.8-27.8,31.8
	c-2.4,1.8-4.8,3.6-7.1,5.4l-0.1,0.1v8.2h45.8v-8.9H538.4z M319.7,318l-0.8-0.3c-7.4-2.8-12.6-5.3-12.6-11.5c0-6.2,5.2-9.4,10.3-9.4
	c4.1,0,9.4,2.1,11.4,6.6l8.7-3.2l-0.1-0.3c-3.4-8-12.4-11.6-19.9-11.6c-9.7,0-20.2,5.8-20.2,18.5c0,12.4,10.1,16.3,18.2,19.4l1,0.4
	c8.3,3.2,13.7,5.8,13.7,12.2c0,6.6-5.9,9.6-11.7,9.6c-5.7,0-12.6-2.9-14.6-11l-0.1-0.4l-9.2,3.3c2.8,10.2,11.9,16.7,23.5,16.7
	c5.8,0,11.3-1.7,15.3-4.7c4.5-3.5,6.9-8.4,6.9-14.2C339.5,325.4,329,321.5,319.7,318 M429.8,330.2c0,11.8-7.7,18-15.2,18
	c-7.7,0-15.4-6.2-15.4-18c0-10.4,6.5-17.9,15.4-17.9C423.4,312.3,429.8,319.8,429.8,330.2 M414.5,303.5c-14,0-24.2,11.2-24.2,26.7
	c0,15.5,10.2,26.7,24.2,26.7c14,0,24.1-11.2,24.1-26.7C438.6,314.7,428.5,303.5,414.5,303.5 M478.1,334.6c0,9.2-6.7,14.1-13.1,14.1
	c-4.8,0-10-2.9-10-10.9v-31.7h-8.8v31.7c0,14.1,9.2,19.1,17,19.1c6.3,0,11.9-3,14.8-7.9l1.7,6.8h7.2v-49.7h-8.8V334.6L478.1,334.6z
	 M507.9,293.3l-8.1,3.3v10.5H492v7.8h7.7v26.6c0,13.3,7.2,15.3,11.5,15.3c1.9,0,3.9-0.3,6-1l0.3-0.1v-8.5l-0.5,0.4
	c-1.3,0.9-2.7,1.4-3.9,1.4c-3.2,0-5.1-2.5-5.1-6.8V315h9.6v-7.8h-9.6V293.3z M507.9,293.3 M609.8,329.2v-19.7l-9.2,3.4v16.4H580
	l25.2-41h-10.2l-26.6,43.2v6.6h32.3v16.3h9.2v-16.3h11.9v-8.9H609.8z M382.2,340.3c-2.6,4.9-7.5,7.9-13,7.9c-7.7,0-15.4-5.6-15.4-18
	c0-8.6,4.6-17.8,14.8-17.8c5,0,9.6,2.7,11.9,7.1l8.6-3.3l-0.2-0.3c-3.6-7.6-11.4-12.3-20.3-12.3c-6.3,0-12.2,2.3-16.5,6.6
	c-4.9,4.8-7.4,11.8-7.4,20.1c0,18.3,12.5,26.7,24.2,26.7c9,0,17.1-4.9,21.4-13.1l0.2-0.3l-0.1,0L382.2,340.3z M382.2,340.3"/>
</svg>
